<svg width="26" height="10" viewBox="0 0 26 10" fill="none" xmlns="http://www.w3.org/2000/svg">
<path d="M20.6865 2.25585C20.6865 1.01514 21.7017 2.43506e-06 22.9424 2.54352e-06C24.1831 2.65199e-06 25.1982 1.01514 25.1982 2.25585C25.1982 3.49657 24.1831 4.5117 22.9424 4.5117C21.7017 4.5117 20.6865 3.49657 20.6865 2.25585Z" fill="#E19C25"/>
<path d="M16.807 8.59491C16.807 7.98583 17.3033 7.5121 17.8898 7.5121C18.4763 7.5121 18.9726 8.00839 18.9726 8.59491C18.9726 9.18143 18.4763 9.67772 17.8898 9.67772C17.3033 9.67772 16.807 9.20399 16.807 8.59491Z" fill="#E19C25"/>
<path d="M4.5117 2.25585C4.5117 1.01514 3.49657 2.65199e-06 2.25585 2.54352e-06C1.01513 2.43506e-06 3.0568e-07 1.01514 1.97213e-07 2.25585C8.87457e-08 3.49657 1.01513 4.5117 2.25585 4.5117C3.49657 4.5117 4.5117 3.49657 4.5117 2.25585Z" fill="#E19C25"/>
<path d="M8.39158 8.59491C8.39158 7.98583 7.91787 7.5121 7.30879 7.5121C6.69971 7.5121 6.22597 8.00839 6.22597 8.59491C6.22597 9.18143 6.69971 9.67772 7.30879 9.67772C7.91787 9.67772 8.39158 9.20399 8.39158 8.59491Z" fill="#E19C25"/>
</svg>
